<svg xmlns="http://www.w3.org/2000/svg" xmlns:xlink="http://www.w3.org/1999/xlink" width="500" zoomAndPan="magnify" viewBox="0 0 375 374.999991" height="500" preserveAspectRatio="xMidYMid meet" version="1.0"><defs><clipPath id="9bc635fe25"><path d="M 45 191 L 367 191 L 367 364.5 L 45 364.5 Z M 45 191 " clip-rule="nonzero"/></clipPath></defs><g clip-path="url(#9bc635fe25)"><path fill="#f38153" d="M 366.269531 275.671875 C 366.664062 263.808594 356.777344 253.523438 344.910156 253.523438 C 344.910156 253.523438 344.515625 253.523438 344.515625 253.523438 C 332.652344 253.523438 322.761719 263.015625 322.761719 274.882812 C 322.367188 300.195312 301.011719 321.15625 275.300781 321.15625 C 253.546875 321.15625 234.960938 306.523438 229.421875 285.5625 C 227.839844 279.628906 229.421875 273.300781 232.585938 268.160156 L 263.832031 219.113281 C 271.742188 206.855469 263.039062 191.035156 248.40625 191.035156 L 163.765625 191.035156 C 149.527344 191.035156 140.828125 206.855469 148.339844 219.113281 L 179.585938 268.160156 C 182.75 273.300781 184.332031 279.628906 182.75 285.5625 C 177.214844 306.523438 158.625 321.15625 136.871094 321.15625 C 111.164062 321.15625 90.199219 300.195312 89.410156 274.882812 C 89.015625 263.015625 79.523438 253.523438 67.65625 253.523438 C 67.65625 253.523438 67.261719 253.523438 67.261719 253.523438 C 55.394531 253.921875 45.507812 263.808594 45.902344 275.671875 C 47.089844 324.71875 87.828125 364.664062 136.871094 364.664062 C 164.160156 364.664062 189.078125 352.402344 206.085938 332.628906 C 223.09375 352.402344 248.011719 364.664062 275.300781 364.664062 C 324.742188 364.664062 365.480469 324.71875 366.269531 275.671875 Z M 366.269531 275.671875 " fill-opacity="1" fill-rule="nonzero"/></g><path fill="#f38153" d="M 43.132812 34.804688 C 8.328125 69.609375 8.328125 126.566406 43.132812 161.371094 C 77.941406 196.175781 134.894531 196.175781 169.699219 161.371094 C 204.503906 126.566406 204.503906 69.609375 169.699219 34.804688 C 134.894531 0 77.941406 0 43.132812 34.804688 Z M 135.289062 98.085938 C 135.289062 113.90625 122.632812 126.566406 106.8125 126.566406 C 90.992188 126.566406 78.335938 113.90625 78.335938 98.085938 C 78.335938 82.265625 90.992188 69.609375 106.8125 69.609375 C 122.238281 69.214844 135.289062 82.265625 135.289062 98.085938 Z M 135.289062 98.085938 " fill-opacity="1" fill-rule="nonzero"/><path fill="#f38153" d="M 334.234375 98.085938 C 334.234375 99.019531 334.1875 99.949219 334.097656 100.878906 C 334.003906 101.808594 333.867188 102.726562 333.6875 103.644531 C 333.503906 104.558594 333.277344 105.460938 333.007812 106.355469 C 332.734375 107.246094 332.421875 108.125 332.066406 108.984375 C 331.707031 109.847656 331.308594 110.6875 330.871094 111.511719 C 330.429688 112.335938 329.953125 113.132812 329.433594 113.910156 C 328.914062 114.683594 328.359375 115.433594 327.769531 116.152344 C 327.175781 116.875 326.550781 117.5625 325.890625 118.222656 C 325.234375 118.882812 324.542969 119.507812 323.820312 120.101562 C 323.101562 120.691406 322.351562 121.246094 321.578125 121.765625 C 320.800781 122.285156 320.003906 122.761719 319.179688 123.203125 C 318.359375 123.640625 317.515625 124.039062 316.652344 124.398438 C 315.792969 124.753906 314.914062 125.066406 314.023438 125.339844 C 313.128906 125.609375 312.226562 125.835938 311.3125 126.015625 C 310.398438 126.199219 309.476562 126.335938 308.546875 126.425781 C 307.621094 126.519531 306.6875 126.566406 305.757812 126.566406 C 304.824219 126.566406 303.894531 126.519531 302.964844 126.425781 C 302.035156 126.335938 301.113281 126.199219 300.199219 126.015625 C 299.285156 125.835938 298.382812 125.609375 297.488281 125.339844 C 296.597656 125.066406 295.71875 124.753906 294.859375 124.398438 C 293.996094 124.039062 293.15625 123.640625 292.332031 123.203125 C 291.507812 122.761719 290.710938 122.285156 289.933594 121.765625 C 289.160156 121.246094 288.410156 120.691406 287.691406 120.101562 C 286.96875 119.507812 286.277344 118.882812 285.621094 118.222656 C 284.960938 117.5625 284.335938 116.875 283.742188 116.152344 C 283.152344 115.433594 282.597656 114.683594 282.078125 113.910156 C 281.558594 113.132812 281.082031 112.335938 280.640625 111.511719 C 280.203125 110.6875 279.804688 109.847656 279.445312 108.984375 C 279.089844 108.125 278.777344 107.246094 278.503906 106.355469 C 278.234375 105.460938 278.007812 104.558594 277.828125 103.644531 C 277.644531 102.726562 277.507812 101.808594 277.417969 100.878906 C 277.324219 99.949219 277.277344 99.019531 277.277344 98.085938 C 277.277344 97.15625 277.324219 96.222656 277.417969 95.296875 C 277.507812 94.367188 277.644531 93.445312 277.828125 92.53125 C 278.007812 91.617188 278.234375 90.714844 278.503906 89.820312 C 278.777344 88.929688 279.089844 88.050781 279.445312 87.191406 C 279.804688 86.328125 280.203125 85.484375 280.640625 84.664062 C 281.082031 83.839844 281.558594 83.042969 282.078125 82.265625 C 282.597656 81.492188 283.152344 80.742188 283.742188 80.023438 C 284.335938 79.300781 284.960938 78.609375 285.621094 77.953125 C 286.277344 77.292969 286.96875 76.667969 287.691406 76.074219 C 288.410156 75.484375 289.160156 74.929688 289.933594 74.410156 C 290.710938 73.890625 291.507812 73.414062 292.332031 72.972656 C 293.15625 72.535156 293.996094 72.136719 294.859375 71.777344 C 295.71875 71.421875 296.597656 71.109375 297.488281 70.835938 C 298.382812 70.566406 299.285156 70.339844 300.199219 70.15625 C 301.113281 69.976562 302.035156 69.839844 302.964844 69.746094 C 303.894531 69.65625 304.824219 69.609375 305.757812 69.609375 C 306.6875 69.609375 307.621094 69.65625 308.546875 69.746094 C 309.476562 69.839844 310.398438 69.976562 311.3125 70.15625 C 312.226562 70.339844 313.128906 70.566406 314.023438 70.835938 C 314.914062 71.109375 315.792969 71.421875 316.652344 71.777344 C 317.515625 72.136719 318.359375 72.535156 319.179688 72.972656 C 320.003906 73.414062 320.800781 73.890625 321.578125 74.410156 C 322.351562 74.929688 323.101562 75.484375 323.820312 76.074219 C 324.542969 76.667969 325.234375 77.292969 325.890625 77.953125 C 326.550781 78.609375 327.175781 79.300781 327.769531 80.023438 C 328.359375 80.742188 328.914062 81.492188 329.433594 82.265625 C 329.953125 83.042969 330.429688 83.839844 330.871094 84.664062 C 331.308594 85.484375 331.707031 86.328125 332.066406 87.191406 C 332.421875 88.050781 332.734375 88.929688 333.007812 89.820312 C 333.277344 90.714844 333.503906 91.617188 333.6875 92.53125 C 333.867188 93.445312 334.003906 94.367188 334.097656 95.296875 C 334.1875 96.222656 334.234375 97.15625 334.234375 98.085938 Z M 334.234375 98.085938 " fill-opacity="1" fill-rule="nonzero"/></svg>